<?xml version="1.0" encoding="UTF-8"?>
<svg version="1.1" xmlns="http://www.w3.org/2000/svg" width="640" height="360">
<path d="M0 0 C2.05697875 0.76680273 4.13214039 1.40659068 6.23046875 2.05078125 C20.31646447 6.74611316 32.88859073 15.39680607 44.54296875 24.42578125 C45.11450684 24.86494873 45.68604492 25.30411621 46.27490234 25.7565918 C50.05711942 28.75556588 52.93648938 31.99693537 55.98046875 35.73828125 C57.220355 36.85690118 58.48898132 37.94509131 59.79296875 38.98828125 C66.52683099 44.74197829 72.0206152 51.81857415 75.98046875 59.73828125 C75.98046875 60.39828125 75.98046875 61.05828125 75.98046875 61.73828125 C76.64046875 61.73828125 77.30046875 61.73828125 77.98046875 61.73828125 C82.17871089 69.75116981 86.1830524 77.75688189 89.35546875 86.23828125 C89.59346191 86.87121094 89.83145508 87.50414062 90.07666016 88.15625 C91.70072688 92.62448261 92.87797017 97.12425312 93.98046875 101.73828125 C94.24988281 102.75792969 94.51929688 103.77757812 94.796875 104.828125 C95.16619141 106.23771484 95.16619141 106.23771484 95.54296875 107.67578125 C95.79175781 108.61292969 96.04054688 109.55007812 96.296875 110.515625 C100.14369509 128.65063397 99.00038576 148.74238336 94.98046875 166.73828125 C94.65046875 167.06828125 94.32046875 167.39828125 93.98046875 167.73828125 C93.72229868 169.35771167 93.46804957 170.97786031 93.2331543 172.60083008 C91.62645669 183.17815226 87.72048181 192.21171597 82.98046875 201.73828125 C82.43777344 202.83914062 81.89507812 203.94 81.3359375 205.07421875 C78.82488677 209.91080722 76.1844124 214.09345761 72.375 218.0078125 C70.80633393 219.82235696 70.80633393 219.82235696 69.57421875 222.62890625 C67.92721049 225.84218707 66.13108662 228.05100797 63.66796875 230.67578125 C61.04998224 233.49127236 58.50232641 236.29597427 56.10546875 239.30078125 C48.78882446 247.86025279 35.31317927 259.73729111 23.98046875 261.73828125 C21.93592626 262.91914249 21.93592626 262.91914249 19.98046875 264.42578125 C8.59352363 272.22863872 -3.73730878 275.68449699 -17.01953125 278.73828125 C-17.74938232 278.92737061 -18.4792334 279.11645996 -19.23120117 279.3112793 C-27.38512199 281.2444879 -35.62960178 281.09192174 -43.95703125 281.05078125 C-44.73609833 281.0486261 -45.51516541 281.04647095 -46.31784058 281.04425049 C-68.72519467 280.9446405 -89.09661327 277.52710394 -109.01953125 266.73828125 C-111.01896515 265.77876739 -113.01899703 264.82049889 -115.01953125 263.86328125 C-120.7724645 260.98314097 -125.85458472 257.55339042 -131.01953125 253.73828125 C-131.91542969 253.10921875 -132.81132812 252.48015625 -133.734375 251.83203125 C-147.69676067 241.9624066 -161.5916476 229.96103522 -168.01953125 213.73828125 C-169.27406511 210.85403375 -169.27406511 210.85403375 -171.3671875 208.6015625 C-173.82243611 205.8328779 -175.04114312 202.55068089 -176.45703125 199.17578125 C-176.74384766 198.50998047 -177.03066406 197.84417969 -177.32617188 197.15820312 C-178.23946769 195.02446747 -179.12907025 192.88163568 -180.01953125 190.73828125 C-180.35009521 189.97410889 -180.68065918 189.20993652 -181.02124023 188.42260742 C-183.80183291 181.81894897 -185.58747133 175.14619886 -187.20703125 168.17578125 C-187.46677734 167.10392578 -187.72652344 166.03207031 -187.99414062 164.92773438 C-196.18600368 130.31870054 -188.07506389 94.11322244 -170.73046875 63.5078125 C-164.58331952 53.55729012 -157.54369562 44.58429062 -149.41503906 36.18505859 C-148.00488613 34.72309808 -146.61756738 33.24162894 -145.23046875 31.7578125 C-140.3608005 26.62977464 -135.57813248 22.47933121 -129.359375 19.0703125 C-127.02878762 17.74355074 -125.00129859 16.2683051 -122.89453125 14.61328125 C-119.77419889 12.21062533 -116.66883265 10.38828995 -113.10546875 8.72265625 C-111.71516287 8.06655684 -110.34412406 7.36798078 -108.99609375 6.62890625 C-103.19524963 3.49441504 -97.15254761 1.20396784 -90.95703125 -1.01171875 C-90.11817383 -1.31762939 -89.27931641 -1.62354004 -88.41503906 -1.9387207 C-83.57973682 -3.62577338 -79.10625546 -4.62570689 -74.00561523 -5.05517578 C-71.41772236 -5.32430392 -69.06480844 -6.06057109 -66.58203125 -6.82421875 C-44.79008216 -12.02253328 -20.58388711 -8.01169259 0 0 Z " fill="#CC0301" transform="translate(366.01953125,43.26171875)"/>
<path d="M0 0 C20.90271623 -0.47007608 39.39692515 0.62417745 59.01953125 8.26171875 C61.07651 9.02852148 63.15167164 9.66830943 65.25 10.3125 C79.33599572 15.00783191 91.90812198 23.65852482 103.5625 32.6875 C104.13403809 33.12666748 104.70557617 33.56583496 105.29443359 34.01831055 C109.07665067 37.01728463 111.95602063 40.25865412 115 44 C116.23988625 45.11861993 117.50851257 46.20681006 118.8125 47.25 C125.54636224 53.00369704 131.04014645 60.0802929 135 68 C135 68.66 135 69.32 135 70 C135.66 70 136.32 70 137 70 C141.19824214 78.01288856 145.20258365 86.01860064 148.375 94.5 C148.61299316 95.13292969 148.85098633 95.76585937 149.09619141 96.41796875 C150.72025813 100.88620136 151.89750142 105.38597187 153 110 C153.26941406 111.01964844 153.53882813 112.03929687 153.81640625 113.08984375 C154.18572266 114.49943359 154.18572266 114.49943359 154.5625 115.9375 C154.81128906 116.87464844 155.06007813 117.81179687 155.31640625 118.77734375 C159.16322634 136.91235272 158.01991701 157.00410211 154 175 C153.67 175.33 153.34 175.66 153 176 C152.74182993 177.61943042 152.48758082 179.23957906 152.25268555 180.86254883 C150.64598794 191.43987101 146.74001306 200.47343472 142 210 C141.18595703 211.65128906 141.18595703 211.65128906 140.35546875 213.3359375 C137.84441802 218.17252597 135.20394365 222.35517636 131.39453125 226.26953125 C129.82586518 228.08407571 129.82586518 228.08407571 128.59375 230.890625 C126.94674174 234.10390582 125.15061787 236.31272672 122.6875 238.9375 C120.06951349 241.75299111 117.52185766 244.55769302 115.125 247.5625 C107.80835571 256.12197154 94.33271052 267.99900986 83 270 C80.95545751 271.18086124 80.95545751 271.18086124 79 272.6875 C67.61142037 280.49147752 55.28262095 283.94249103 42 287 C40.91283691 287.28472168 40.91283691 287.28472168 39.80371094 287.57519531 C32.25196359 289.38055997 24.66695061 289.30306502 16.95117188 289.26074219 C14.63645029 289.25005288 12.3225101 289.26067082 10.0078125 289.2734375 C1.47954752 289.28028256 -6.62092776 288.79128937 -15 287 C-11.84019272 282.73102763 -8.62832348 278.53680714 -5.25 274.4375 C-1.84545777 270.208011 1.24051959 265.82616371 4.25 261.3125 C4.8682666 260.38618774 4.8682666 260.38618774 5.49902344 259.44116211 C10.96373462 251.17482944 10.96373462 251.17482944 14.75 242.0625 C15.11351562 240.90427734 15.11351562 240.90427734 15.484375 239.72265625 C15.65453125 239.15417969 15.8246875 238.58570313 16 238 C16.66 238 17.32 238 18 238 C18.18175781 237.45472656 18.36351562 236.90945313 18.55078125 236.34765625 C18.80214844 235.59355469 19.05351562 234.83945312 19.3125 234.0625 C19.58835937 233.22976563 19.86421875 232.39703125 20.1484375 231.5390625 C20.6617052 230.00867716 21.18476795 228.4814577 21.7265625 226.9609375 C23.45454672 222.04282857 24.83210425 217.04797584 26.125 212 C26.29572021 211.34765381 26.46644043 210.69530762 26.64233398 210.02319336 C33.92022725 180.92973354 27.07600935 151.72097014 18.04296875 123.984375 C8.90606039 95.90134763 4.172549 69.6841197 5 40 C5.01933594 38.71996094 5.03867187 37.43992188 5.05859375 36.12109375 C5.4892247 25.27702345 7.09382868 10.81234264 12 1 C8.04 1 4.08 1 0 1 C0 0.67 0 0.34 0 0 Z " fill="#FBE701" transform="translate(307,35)"/>
<path d="M0 0 C0.495 1.485 0.495 1.485 1 3 C-0.328125 5.55859375 -0.328125 5.55859375 -2.25 8.4375 C-2.87390625 9.38496094 -3.4978125 10.33242188 -4.140625 11.30859375 C-4.75421875 12.19675781 -5.3678125 13.08492187 -6 14 C-6.53109375 14.77472656 -7.0621875 15.54945312 -7.609375 16.34765625 C-8.06828125 16.89292969 -8.5271875 17.43820313 -9 18 C-9.66 18 -10.32 18 -11 18 C-11.25136719 18.84691406 -11.50273437 19.69382812 -11.76171875 20.56640625 C-13.09494937 24.26328232 -14.87824384 27.53696745 -16.8125 30.9375 C-20.9160265 38.37409496 -23.61201443 45.85493295 -26 54 C-26.3609375 55.22460938 -26.721875 56.44921875 -27.09375 57.7109375 C-31.77330223 74.69448482 -28.5193258 90.82241318 -20.36328125 106.05078125 C-17.09512274 111.76694676 -12.81741088 116.51599755 -8.42773438 121.38476562 C8.43040955 140.45683816 22.7967813 161.19899916 22.30859375 187.58984375 C21.82853915 192.89475096 20.27237098 197.21323037 18 202 C17.50242187 203.0621875 17.00484375 204.124375 16.4921875 205.21875 C12.62490878 212.91733275 8.04577368 218.90735986 2 225 C1.02403113 226.01233831 0.04880403 227.02539213 -0.92578125 228.0390625 C-14.40906434 241.93804425 -14.40906434 241.93804425 -19 244 C-32.73465046 240.07877804 -45.82830773 224.85245326 -53 213 C-54.11960693 210.69750401 -55.05505476 208.38486179 -56 206 C-57.25453386 203.1157525 -57.25453386 203.1157525 -59.34765625 200.86328125 C-61.80290486 198.09459665 -63.02161187 194.81239964 -64.4375 191.4375 C-64.72431641 190.77169922 -65.01113281 190.10589844 -65.30664062 189.41992188 C-66.21993644 187.28618622 -67.109539 185.14335443 -68 183 C-68.33056396 182.23582764 -68.66112793 181.47165527 -69.00170898 180.68432617 C-71.78230166 174.08066772 -73.56794008 167.40791761 -75.1875 160.4375 C-75.44724609 159.36564453 -75.70699219 158.29378906 -75.97460938 157.18945312 C-84.16647243 122.58041929 -76.05553264 86.37494119 -58.7109375 55.76953125 C-52.56378827 45.81900887 -45.52416437 36.84600937 -37.39550781 28.44677734 C-35.98535488 26.98481683 -34.59803613 25.50334769 -33.2109375 24.01953125 C-28.34197251 18.89223397 -23.55895563 14.74449383 -17.34375 11.33203125 C-15.00134957 10.000767 -12.94031126 8.52405373 -10.8125 6.875 C-7.36644133 4.20798921 -3.83004131 2.07460571 0 0 Z " fill="#CC0101" transform="translate(254,51)"/>
<path d="M0 0 C0 4.2152875 -2.21209685 6.82608438 -4.4375 10.25 C-5.36027504 11.70125102 -6.28213012 13.15308735 -7.203125 14.60546875 C-7.67169922 15.34071777 -8.14027344 16.0759668 -8.62304688 16.83349609 C-17.9660387 31.53379919 -25.9038595 45.89501128 -30 63 C-30.33837891 64.31291016 -30.33837891 64.31291016 -30.68359375 65.65234375 C-33.1666221 76.76603618 -34.18693689 90.62612621 -28.9921875 101.015625 C-28 103 -28 103 -27.25 106.5 C-25.32401807 111.89274941 -21.66951643 115.6713649 -18 120 C-17.30519531 120.89074219 -16.61039062 121.78148437 -15.89453125 122.69921875 C-9.614165 130.71841136 -2.40298618 137.21339727 5.19140625 143.94140625 C15.35190823 153.4450677 23.83116881 165.870824 24.34326172 179.96948242 C24.72595084 206.71356429 11.09597496 227.35340266 -7 246 C-7.54317871 246.56895996 -8.08635742 247.13791992 -8.64599609 247.72412109 C-27.70724315 267.65649055 -27.70724315 267.65649055 -36.83203125 271.0546875 C-41.59454801 270.97247389 -44.72031154 268.79413213 -48.6875 266.3125 C-49.82541992 265.64057617 -49.82541992 265.64057617 -50.98632812 264.95507812 C-54.68228523 262.71401676 -57.75513723 260.81894982 -60 257 C-59.15179688 256.29617188 -58.30359375 255.59234375 -57.4296875 254.8671875 C-39.22882492 240.03472399 -39.22882492 240.03472399 -26 221 C-25.45730469 219.89011719 -24.91460937 218.78023437 -24.35546875 217.63671875 C-17.77035155 203.77250243 -17.2492984 190.82409562 -22 176 C-25.95436625 166.12013081 -31.38016349 157.31689831 -38 149 C-38.97259766 147.75863281 -38.97259766 147.75863281 -39.96484375 146.4921875 C-42.68709771 143.05298349 -45.4555737 139.65557216 -48.2578125 136.28125 C-61.91624454 119.79853201 -71.24100653 103.94205159 -70 82 C-68.14403578 63.83246287 -60.10253016 46.58985678 -51 31 C-50.34 31 -49.68 31 -49 31 C-48.73960937 30.45214844 -48.47921875 29.90429688 -48.2109375 29.33984375 C-46.81779278 26.64792863 -45.25023723 24.12100665 -43.625 21.5625 C-43.03976563 20.63566406 -42.45453125 19.70882812 -41.8515625 18.75390625 C-41.24054688 17.84511719 -40.62953125 16.93632813 -40 16 C-39.46761719 15.14664063 -38.93523437 14.29328125 -38.38671875 13.4140625 C-34.87157221 9.85864423 -30.81887731 8.53541266 -26.1875 6.8125 C-25.31029297 6.47025391 -24.43308594 6.12800781 -23.52929688 5.77539062 C-17.16409005 3.32357199 -10.90015514 1.00616817 -4.0625 0.375 C-3.29035156 0.30023438 -2.51820313 0.22546875 -1.72265625 0.1484375 C-1.15417969 0.09945312 -0.58570313 0.05046875 0 0 Z " fill="#FDE601" transform="translate(294,38)"/>
<path d="M0 0 C8.84116517 5.33091672 14.38710438 14.63848403 19.37109375 23.4296875 C19.37109375 24.0896875 19.37109375 24.7496875 19.37109375 25.4296875 C20.03109375 25.4296875 20.69109375 25.4296875 21.37109375 25.4296875 C25.56933589 33.44257606 29.5736774 41.44828814 32.74609375 49.9296875 C33.1030835 50.87908203 33.1030835 50.87908203 33.46728516 51.84765625 C35.09135188 56.31588886 36.26859517 60.81565937 37.37109375 65.4296875 C37.64050781 66.44933594 37.90992188 67.46898437 38.1875 68.51953125 C38.43371094 69.45925781 38.67992187 70.39898437 38.93359375 71.3671875 C39.18238281 72.30433594 39.43117188 73.24148437 39.6875 74.20703125 C43.53432009 92.34204022 42.39101076 112.43378961 38.37109375 130.4296875 C38.04109375 130.7596875 37.71109375 131.0896875 37.37109375 131.4296875 C37.11292368 133.04911792 36.85867457 134.66926656 36.6237793 136.29223633 C35.01708169 146.86955851 31.11110681 155.90312222 26.37109375 165.4296875 C25.55705078 167.08097656 25.55705078 167.08097656 24.7265625 168.765625 C22.21551177 173.60221347 19.5750374 177.78486386 15.765625 181.69921875 C14.19695893 183.51376321 14.19695893 183.51376321 12.96484375 186.3203125 C11.31783549 189.53359332 9.52171162 191.74241422 7.05859375 194.3671875 C4.44060724 197.18267861 1.89295141 199.98738052 -0.50390625 202.9921875 C-7.784015 211.50891746 -18.03794392 218.66693599 -27.62890625 224.4296875 C-28.61890625 224.4296875 -29.60890625 224.4296875 -30.62890625 224.4296875 C-29.35409635 221.76729466 -27.96626028 219.34251514 -26.2734375 216.92578125 C-25.5928125 215.94786621 -25.5928125 215.94786621 -24.8984375 214.95019531 C-24.41761719 214.26280273 -23.93679688 213.57541016 -23.44140625 212.8671875 C-11.33728455 195.36167989 -0.51545988 177.64790264 6.37109375 157.4296875 C6.88721098 156.09943909 7.40550054 154.77003179 7.92578125 153.44140625 C9.34422348 149.68280677 10.23531552 145.94238214 10.99609375 141.9921875 C11.23585938 140.77660156 11.475625 139.56101563 11.72265625 138.30859375 C13.16352021 129.68944971 13.60813815 121.22994572 13.68359375 112.4921875 C13.71259766 111.37650391 13.74160156 110.26082031 13.77148438 109.11132812 C13.84615236 99.30684785 11.5485573 91.19564168 5.37109375 83.4296875 C-0.04790675 78.03661523 -4.67121315 75.3245305 -12.453125 74.90234375 C-14.12084961 74.79696289 -14.12084961 74.79696289 -15.82226562 74.68945312 C-18.13200537 74.55905418 -20.44190199 74.43140177 -22.75195312 74.30664062 C-32.345594 73.69286879 -41.86654193 72.86828825 -48.62890625 65.4296875 C-51.85298719 58.54187822 -51.92391909 49.32821432 -50 42.05078125 C-43.50131517 28.62016594 -29.49036456 18.12270425 -17.56738281 9.80078125 C-15.64829094 8.44339838 -13.77373274 7.0394033 -11.90234375 5.6171875 C-10.74933816 4.76215679 -9.59572481 3.90794482 -8.44140625 3.0546875 C-7.43722656 2.30445312 -6.43304688 1.55421875 -5.3984375 0.78125 C-2.62890625 -0.5703125 -2.62890625 -0.5703125 0 0 Z " fill="#3025A3" transform="translate(422.62890625,79.5703125)"/>
<path d="M0 0 C6.2382774 3.34447571 12.42445325 6.74676818 18.4609375 10.4453125 C20.2236701 11.52464723 22.00097526 12.58039742 23.7890625 13.6171875 C35.47277294 20.60166454 42.62591364 29.95131387 47.375 42.6875 C50.55718187 58.59840934 46.62817154 72.47510416 37.828125 85.77050781 C36.54939029 87.65210279 35.25044522 89.51712765 33.9375 91.375 C33.5262085 91.95797852 33.11491699 92.54095703 32.69116211 93.14160156 C30.70114963 95.89109124 28.76839181 98.22452846 26.31640625 100.6015625 C23.92498604 103.07767045 23.19799933 104.83708126 22 108 C20.16015625 110.24609375 20.16015625 110.24609375 18.0625 112.4375 C14.88279262 115.75984846 13.01652506 118.87882411 11 123 C9.58307328 125.11171318 8.12044427 127.1931431 6.625 129.25 C6.19727295 129.84135742 5.7695459 130.43271484 5.32885742 131.04199219 C4.39378059 132.33402575 3.45676881 133.62466062 2.51806641 134.9140625 C0.34054585 137.90613963 -1.82639226 140.9058274 -3.9934082 143.90551758 C-5.11722189 145.46078244 -6.24204941 147.01531525 -7.36791992 148.5690918 C-10.89758376 153.44620547 -14.36131796 158.35790129 -17.73046875 163.34765625 C-19 165 -19 165 -21 166 C-22.59447464 166.08400529 -24.19240545 166.10727467 -25.7890625 166.09765625 C-26.73007812 166.09443359 -27.67109375 166.09121094 -28.640625 166.08789062 C-29.62546875 166.07951172 -30.6103125 166.07113281 -31.625 166.0625 C-32.61757813 166.05798828 -33.61015625 166.05347656 -34.6328125 166.04882812 C-37.0886016 166.03702145 -39.54427104 166.020554 -42 166 C-38.94109546 161.32548657 -35.81490789 156.72796856 -32.50854492 152.22338867 C-15.04755985 128.31318622 -1.69207642 100.59763742 2 71 C2.08506302 70.3384642 2.17012604 69.67692841 2.25776672 68.99534607 C2.92591172 63.48117247 3.17442318 58.0478892 3.203125 52.49609375 C3.21167511 51.17376488 3.21167511 51.17376488 3.22039795 49.82472229 C3.22978462 47.96836523 3.23635649 46.11199198 3.24023438 44.25561523 C3.24989109 41.46892886 3.28095551 38.68299688 3.3125 35.89648438 C3.36924756 26.00712264 2.79167696 16.8040745 0.64746094 7.13696289 C0 4 0 4 0 0 Z " fill="#3227A1" transform="translate(360,158)"/>
<path d="M0 0 C5.51285898 0.04556082 9.35552335 1.02277138 14 4 C15.90781265 4.45270131 17.81620129 4.9035456 19.73046875 5.328125 C24.07728673 6.61496268 28.01918022 8.86275659 32 11 C29.89569642 15.54529574 27.67141063 19.56297816 24.69921875 23.59765625 C20.99338065 28.83942543 18.10647132 34.26311823 15.375 40.0625 C14.8998999 41.06764648 14.4247998 42.07279297 13.93530273 43.10839844 C7.27040513 57.54843525 4.0535125 72.45949782 1 88 C-0.98 88.495 -0.98 88.495 -3 89 C-8.72855786 75.27472432 -10.78909481 60.79553509 -11 46 C-11.0107959 45.3395166 -11.0215918 44.6790332 -11.03271484 43.99853516 C-11.10596593 29.63783406 -8.1170615 13.58703162 -1 1 C-0.67 0.67 -0.34 0.34 0 0 Z " fill="#3125A1" transform="translate(355,41)"/>
<path d="M0 0 C0.99 0.33 1.98 0.66 3 1 C3 1.66 3 2.32 3 3 C4.32 3.33 5.64 3.66 7 4 C7 3.34 7 2.68 7 2 C7.99 2 8.98 2 10 2 C9.34 6.29 8.68 10.58 8 15 C6.68 15.33 5.36 15.66 4 16 C3.32320342 14.274773 2.65898 12.54461061 2 10.8125 C1.443125 9.36810547 1.443125 9.36810547 0.875 7.89453125 C0.02363228 5.07817642 -0.17072647 2.91835561 0 0 Z " fill="#46398F" transform="translate(348,114)"/>
<path d="M0 0 C0.33 0.99 0.66 1.98 1 3 C-0.29296875 5.55859375 -0.29296875 5.55859375 -2.1875 8.4375 C-2.79980469 9.38496094 -3.41210938 10.33242188 -4.04296875 11.30859375 C-5.85974542 13.80711495 -7.75119641 15.89081171 -10 18 C-10.19745557 13.75470526 -9.77191013 10.85651029 -8 7 C-7.67 6.01 -7.34 5.02 -7 4 C-4.78298853 2.41034429 -2.42137527 1.27672514 0 0 Z " fill="#D11C07" transform="translate(254,51)"/>
<path d="M0 0 C0.66 1.32 1.32 2.64 2 4 C2.33 4.33 2.66 4.66 3 5 C2.90903444 7.86688248 2.76232012 10.70300515 2.5625 13.5625 C2.51029297 14.36880859 2.45808594 15.17511719 2.40429688 16.00585938 C2.27422624 18.00421738 2.13770944 20.00215386 2 22 C0.35 21.67 -1.3 21.34 -3 21 C-2.01 14.07 -1.02 7.14 0 0 Z " fill="#4B3E8B" transform="translate(436,205)"/>
<path d="M0 0 C0.33 0 0.66 0 1 0 C2.58210413 4.32441794 3.91432498 8.37354875 4 13 C1.50390625 15.2109375 1.50390625 15.2109375 -1 17 C-1.02709444 14.91673869 -1.04643873 12.83337559 -1.0625 10.75 C-1.07410156 9.58984375 -1.08570313 8.4296875 -1.09765625 7.234375 C-1.01782092 4.59022872 -0.78643778 2.50173909 0 0 Z " fill="#524686" transform="translate(346,66)"/>
<path d="M0 0 C0.99 0.33 1.98 0.66 3 1 C4.25433458 4.76300374 4.10695422 8.27210909 4.0625 12.1875 C4.05798828 12.93708984 4.05347656 13.68667969 4.04882812 14.45898438 C4.03706354 16.30602383 4.01912865 18.15302213 4 20 C3.67 20 3.34 20 3 20 C2.96132813 18.86111328 2.96132813 18.86111328 2.921875 17.69921875 C2.86515625 16.70535156 2.8084375 15.71148437 2.75 14.6875 C2.70359375 13.70136719 2.6571875 12.71523437 2.609375 11.69921875 C2.24029762 8.86059908 2.24029762 8.86059908 -0.046875 7.14453125 C-0.69140625 6.76683594 -1.3359375 6.38914063 -2 6 C-1.125 1.125 -1.125 1.125 0 0 Z " fill="#544785" transform="translate(404,201)"/>
<path d="M0 0 C0.33 0 0.66 0 1 0 C1.13277344 0.80824219 1.26554687 1.61648437 1.40234375 2.44921875 C1.57894531 3.51785156 1.75554687 4.58648437 1.9375 5.6875 C2.11152344 6.74324219 2.28554688 7.79898438 2.46484375 8.88671875 C2.93167121 11.60249604 3.44422616 14.30124235 4 17 C2.35 16.67 0.7 16.34 -1 16 C-1.02712153 14.083412 -1.04645097 12.1667127 -1.0625 10.25 C-1.07410156 9.18265625 -1.08570313 8.1153125 -1.09765625 7.015625 C-1.01510087 4.46631499 -0.74617558 2.42066409 0 0 Z " fill="#E6D512" transform="translate(371,129)"/>
<path d="M0 0 C1.32 0.66 2.64 1.32 4 2 C3.375 4.4375 3.375 4.4375 2 7 C-1.125 7.8125 -1.125 7.8125 -4 8 C-3.40072174 4.64404172 -2.15377564 2.62198774 0 0 Z " fill="#E5D512" transform="translate(387,256)"/>
<path d="M0 0 C1.5625 1.1875 1.5625 1.1875 3 3 C2.6875 5.6875 2.6875 5.6875 2 8 C0.35 7.67 -1.3 7.34 -3 7 C-2.01 4.69 -1.02 2.38 0 0 Z " fill="#473A8F" transform="translate(347,278)"/>
<path d="M0 0 C0.33 0.66 0.66 1.32 1 2 C1.99 2.33 2.98 2.66 4 3 C-0.625 7 -0.625 7 -4 7 C-2.79618552 4.50638429 -1.54571278 2.31856917 0 0 Z " fill="#473C9C" transform="translate(396,297)"/>
<path d="M0 0 C0.33 1.32 0.66 2.64 1 4 C0.38125 4.061875 -0.2375 4.12375 -0.875 4.1875 C-3.27761141 4.828919 -3.27761141 4.828919 -4.25 7.5625 C-4.4975 8.366875 -4.745 9.17125 -5 10 C-5.66 10 -6.32 10 -7 10 C-5.6062718 5.56541027 -3.39417765 3.12621626 0 0 Z " fill="#DECD18" transform="translate(380,267)"/>
<path d="M0 0 C3.91402949 1.26941497 5.79072873 2.51167694 8 6 C7.01 6.33 6.02 6.66 5 7 C4.67 5.68 4.34 4.36 4 3 C1.69 3 -0.62 3 -3 3 C-2.01 2.01 -1.02 1.02 0 0 Z " fill="#4135A0" transform="translate(420,79)"/>
<path d="M0 0 C0.33 0.99 0.66 1.98 1 3 C-0.40445835 5.2636564 -2.1967913 7.0208685 -4 9 C-4.66 8.67 -5.32 8.34 -6 8 C-4.55746343 4.63408134 -2.66735273 2.48952921 0 0 Z " fill="#D01112" transform="translate(229,67)"/>
<path d="M0 0 C0.33 0 0.66 0 1 0 C1.103125 0.763125 1.20625 1.52625 1.3125 2.3125 C2.04364039 5.17059424 2.76951913 6.15742885 5 8 C4.01 8.33 3.02 8.66 2 9 C2 10.65 2 12.3 2 14 C1.67 14 1.34 14 1 14 C0.67 9.38 0.34 4.76 0 0 Z " fill="#564984" transform="translate(344,87)"/>
<path d="M0 0 C0.66 0 1.32 0 2 0 C2.33 1.65 2.66 3.3 3 5 C0.525 6.485 0.525 6.485 -2 8 C-1.47731534 5.23723823 -0.89130413 2.6739124 0 0 Z " fill="#F5C202" transform="translate(323,273)"/>
<path d="M0 0 C0.33 0 0.66 0 1 0 C1 2.97 1 5.94 1 9 C-0.32 9 -1.64 9 -3 9 C-2.01 6.03 -1.02 3.06 0 0 Z " fill="#4D3F8B" transform="translate(427,243)"/>
<path d="M0 0 C1.65 1.32 3.3 2.64 5 4 C4.67 5.32 4.34 6.64 4 8 C0 3.375 0 3.375 0 0 Z " fill="#D42001" transform="translate(266,143)"/>
</svg>
